<svg width="571" height="144" viewBox="0 0 571 144" fill="none" xmlns="http://www.w3.org/2000/svg">

  <path d="M116.385 2.4V142H88.3852V82.6H28.5852V142H0.585157V2.4H28.5852V59.8H88.3852V2.4H116.385Z" fill="white"/>
  

  <path d="M171.945 25V60H218.945V82.2H171.945V119.2H224.945V142H143.945V2.19999H224.945V25H171.945Z" fill="white"/>
  

  <path d="M278.39 119.8H324.39V142H250.39V2.4H278.39V119.8Z" fill="white"/>
  

  <path d="M370.187 119.8H416.187V142H342.187V2.4H370.187V119.8Z" fill="white"/>
  

  <path d="M498.784 143.4C485.717 143.4 473.717 140.333 462.784 134.2C451.85 128.067 443.184 119.6 436.784 108.8C430.384 97.8667 427.184 85.5333 427.184 71.8C427.184 58.2 430.384 46 436.784 35.2C443.184 24.2667 451.85 15.7333 462.784 9.59999C473.717 3.46666 485.717 0.399999 498.784 0.399999C511.984 0.399999 523.984 3.46666 534.784 9.59999C545.717 15.7333 554.317 24.2667 560.584 35.2C566.984 46 570.184 58.2 570.184 71.8C570.184 85.5333 566.984 97.8667 560.584 108.8C554.317 119.6 545.717 128.067 534.784 134.2C523.85 140.333 511.85 143.4 498.784 143.4Z" fill="white"/>
  

  <path d="M498.784 118.4C507.184 118.4 514.584 116.533 520.984 112.8C527.384 108.933 532.384 103.467 535.984 96.4C539.584 89.3333 541.384 81.1333 541.384 71.8C541.384 62.4667 539.584 54.3333 535.984 47.4C532.384 40.3333 527.384 34.9333 520.984 31.2C514.584 27.4667 507.184 25.6 498.784 25.6C490.384 25.6 482.917 27.4667 476.384 31.2C469.984 34.9333 464.984 40.3333 461.384 47.4C457.784 54.3333 455.984 62.4667 455.984 71.8C455.984 81.1333 457.784 89.3333 461.384 96.4C464.984 103.467 469.984 108.933 476.384 112.8C482.917 116.533 490.384 118.4 498.784 118.4Z" fill="#161616" stroke="white"/>
</svg>
