<svg width="444" height="194" viewBox="0 0 444 194" fill="none" xmlns="http://www.w3.org/2000/svg">
    <path d="M52.0758 148C39.6758 148 30.0758 146.733 23.2758 144.2C16.6091 141.667 11.9424 137.733 9.27578 132.4C6.60912 126.933 5.07578 120.067 4.67578 111.8L0.475782 0.599989H28.4758L32.6758 98.4C32.9425 104.533 33.6091 109.133 34.6758 112.2C35.7424 115.267 37.7424 117.333 40.6758 118.4C43.7425 119.467 48.2091 120 54.0758 120C59.1425 120 62.7424 121.333 64.8758 124C67.1425 126.533 68.2758 129.733 68.2758 133.6C68.2758 137.733 66.8758 141.2 64.0758 144C61.2758 146.667 57.2758 148 52.0758 148Z" fill="white"/>
    <path d="M52.3477 148L54.3477 120C59.4143 120 63.4143 119.533 66.3477 118.6C69.4143 117.667 71.8143 115.8 73.5477 113C75.4143 110.067 76.9477 105.8 78.1477 100.2C79.481 94.6 80.8143 87.1333 82.1477 77.8L108.348 82.2C108.081 84.2 107.681 86.5333 107.148 89.2C106.748 91.8667 106.348 94.6 105.948 97.4C105.681 100.067 105.548 102.6 105.548 105C105.548 108.2 106.214 110.933 107.548 113.2C109.014 115.333 111.548 117 115.148 118.2C118.881 119.4 124.214 120 131.148 120C136.214 120 139.814 121.333 141.948 124C144.081 126.533 145.148 129.733 145.148 133.6C145.148 137.733 143.748 141.2 140.948 144C138.281 146.667 134.348 148 129.148 148C119.948 148 112.481 147.133 106.748 145.4C101.014 143.667 96.7477 140.733 93.9477 136.6C91.1477 132.467 89.3477 126.8 88.5477 119.6H98.1477C95.7477 126 92.9477 131.133 89.7477 135C86.5477 138.733 82.9477 141.533 78.9477 143.4C74.9477 145.267 70.681 146.467 66.1477 147C61.7477 147.667 57.1477 148 52.3477 148Z" fill="white"/>
    <path d="M87.9477 194C84.081 194 80.7477 192.667 77.9477 190C75.281 187.333 73.9477 184.067 73.9477 180.2C73.9477 176.333 75.281 172.933 77.9477 170C80.7477 167.2 84.081 165.8 87.9477 165.8C91.8143 165.8 95.081 167.2 97.7477 170C100.548 172.933 101.948 176.333 101.948 180.2C101.948 184.067 100.548 187.333 97.7477 190C95.081 192.667 91.8143 194 87.9477 194Z" fill="white"/>
    <path d="M129.105 148L131.105 120C138.305 120 145.439 119.6 152.505 118.8C159.572 118 166.439 116.8 173.105 115.2C179.772 113.6 186.105 111.533 192.105 109C198.239 106.467 203.972 103.4 209.305 99.8C205.305 97.4 200.972 95.3333 196.305 93.6C191.639 91.8667 186.639 90.6 181.305 89.8C176.105 88.8667 170.572 88.4 164.705 88.4C162.572 88.4 160.305 88.4667 157.905 88.6C155.639 88.7333 153.305 89 150.905 89.4C148.505 89.6667 146.105 90.0667 143.705 90.6L139.705 63.2C143.572 62.1333 147.639 61.4 151.905 61C156.305 60.4667 160.172 60.2 163.505 60.2C170.705 60.2 177.305 61 183.305 62.6C189.439 64.2 195.039 66.2 200.105 68.6C205.305 71 210.105 73.4 214.505 75.8C219.039 78.2 223.305 80.2 227.305 81.8C231.439 83.4 235.439 84.2 239.305 84.2H246.705L249.905 110.8C244.172 111.067 238.772 112.2 233.705 114.2C228.772 116.067 223.839 118.467 218.905 121.4C214.105 124.2 208.905 127.133 203.305 130.2C197.839 133.267 191.639 136.133 184.705 138.8C177.772 141.467 169.772 143.667 160.705 145.4C151.639 147.133 141.105 148 129.105 148Z" fill="white"/>
    <path d="M250.079 193.2L239.879 168.4C246.946 166 253.412 163.2 259.279 160C265.279 156.8 270.479 153.267 274.879 149.4C279.279 145.533 282.679 141.333 285.079 136.8C287.479 132.133 288.679 127.133 288.679 121.8C288.679 116.2 287.412 110.067 284.879 103.4C282.346 96.7333 279.279 89.9333 275.679 83L301.879 70.4C304.279 74.5333 306.346 79 308.079 83.8C309.946 88.4667 311.479 92.6667 312.679 96.4C313.879 100.133 314.679 102.667 315.079 104C316.946 110.4 319.479 114.667 322.679 116.8C326.012 118.933 331.346 120 338.679 120C343.746 120 347.346 121.333 349.479 124C351.746 126.533 352.879 129.733 352.879 133.6C352.879 137.733 351.479 141.2 348.679 144C345.879 146.667 341.879 148 336.679 148C331.212 148 326.412 147.2 322.279 145.6C318.146 144 314.812 141.667 312.279 138.6C309.879 135.533 308.346 131.933 307.679 127.8L315.079 132C314.279 139.067 311.946 145.733 308.079 152C304.346 158.4 299.479 164.267 293.479 169.6C287.479 174.933 280.746 179.6 273.279 183.6C265.812 187.6 258.079 190.8 250.079 193.2Z" fill="white"/>
    <path d="M336.918 148L338.918 120C341.985 120 344.585 119.267 346.718 117.8C348.985 116.2 351.318 113.6 353.718 110C356.118 106.267 358.918 101.267 362.118 95C366.118 87 370.251 80.7333 374.518 76.2C378.918 71.6667 383.385 68.4667 387.918 66.6C392.585 64.6 397.251 63.6 401.918 63.6C407.785 63.6 413.251 64.8667 418.318 67.4C423.385 69.9333 427.785 73.4 431.518 77.8C435.251 82.0667 438.118 87 440.118 92.6C442.251 98.0667 443.318 103.733 443.318 109.6C443.318 116.667 441.785 123.067 438.718 128.8C435.785 134.4 431.651 138.867 426.318 142.2C421.118 145.4 415.118 147 408.318 147C402.585 147 395.918 146 388.318 144C380.718 142 372.718 137.8 364.318 131.4L374.518 107.2C380.518 111.333 386.118 114.333 391.318 116.2C396.651 118.067 401.051 119 404.518 119C407.185 119 409.385 118.733 411.118 118.2C412.851 117.667 414.118 116.8 414.918 115.6C415.718 114.4 416.118 112.8 416.118 110.8C416.118 108 415.451 105.133 414.118 102.2C412.785 99.2667 410.985 96.8 408.718 94.8C406.585 92.6667 404.051 91.6 401.118 91.6C398.318 91.6 395.918 92.6667 393.918 94.8C392.051 96.8 390.185 99.7333 388.318 103.6C386.585 107.333 384.451 111.733 381.918 116.8C378.851 122.933 375.851 128.067 372.918 132.2C369.985 136.2 366.851 139.4 363.518 141.8C360.318 144.067 356.518 145.667 352.118 146.6C347.851 147.533 342.785 148 336.918 148Z" fill="white"/>
</svg>