<svg width="608" height="144" viewBox="0 0 608 144" fill="none" xmlns="http://www.w3.org/2000/svg">
<path d="M116.526 2.4V142H88.5258V82.6H28.7258V142H0.725782V2.4H28.7258V59.8H88.5258V2.4H116.526ZM229.685 115.4H174.085L164.885 142H135.485L185.685 2.19999H218.285L268.485 142H238.885L229.685 115.4ZM222.085 93L201.885 34.6L181.685 93H222.085ZM315.249 119.8H361.249V142H287.249V2.4H315.249V119.8ZM407.046 119.8H453.046V142H379.046V2.4H407.046V119.8ZM535.643 143.4C522.576 143.4 510.576 140.333 499.643 134.2C488.71 128.067 480.043 119.6 473.643 108.8C467.243 97.8667 464.043 85.5333 464.043 71.8C464.043 58.2 467.243 46 473.643 35.2C480.043 24.2667 488.71 15.7333 499.643 9.59999C510.576 3.46666 522.576 0.399999 535.643 0.399999C548.843 0.399999 560.843 3.46666 571.643 9.59999C582.576 15.7333 591.176 24.2667 597.443 35.2C603.843 46 607.043 58.2 607.043 71.8C607.043 85.5333 603.843 97.8667 597.443 108.8C591.176 119.6 582.576 128.067 571.643 134.2C560.71 140.333 548.71 143.4 535.643 143.4ZM535.643 118.4C544.043 118.4 551.443 116.533 557.843 112.8C564.243 108.933 569.243 103.467 572.843 96.4C576.443 89.3333 578.243 81.1333 578.243 71.8C578.243 62.4667 576.443 54.3333 572.843 47.4C569.243 40.3333 564.243 34.9333 557.843 31.2C551.443 27.4667 544.043 25.6 535.643 25.6C527.243 25.6 519.776 27.4667 513.243 31.2C506.843 34.9333 501.843 40.3333 498.243 47.4C494.643 54.3333 492.843 62.4667 492.843 71.8C492.843 81.1333 494.643 89.3333 498.243 96.4C501.843 103.467 506.843 108.933 513.243 112.8C519.776 116.533 527.243 118.4 535.643 118.4Z" fill="white"/>
</svg>




<svg width="608" height="144" viewBox="0 0 608 144" fill="none" xmlns="http://www.w3.org/2000/svg">
  <path d="M116.526 2.4V142H88.5258V82.6H28.7258V142H0.725782V2.4H28.7258V59.8H88.5258V2.4H116.526Z" fill="white"/>
  <path d="M229.685 115.4H174.085L164.885 142H135.485L185.685 2.19999H218.285L268.485 142H238.885L229.685 115.4Z" fill="white"/>
  <path d="M222.085 93L201.885 34.6L181.685 93H222.085Z" fill="#161616"/>
  <path d="M315.249 119.8H361.249V142H287.249V2.4H315.249V119.8Z" fill="white"/>
  <path d="M407.046 119.8H453.046V142H379.046V2.4H407.046V119.8Z" fill="white"/>
  <path d="M535.643 143.4C522.576 143.4 510.576 140.333 499.643 134.2C488.71 128.067 480.043 119.6 473.643 108.8C467.243 97.8667 464.043 85.5333 464.043 71.8C464.043 58.2 467.243 46 473.643 35.2C480.043 24.2667 488.71 15.7333 499.643 9.59999C510.576 3.46666 522.576 0.399999 535.643 0.399999C548.843 0.399999 560.843 3.46666 571.643 9.59999C582.576 15.7333 591.176 24.2667 597.443 35.2C603.843 46 607.043 58.2 607.043 71.8C607.043 85.5333 603.843 97.8667 597.443 108.8C591.176 119.6 582.576 128.067 571.643 134.2C560.71 140.333 548.71 143.4 535.643 143.4Z" fill="white"/>
  <path d="M535.643 118.4C544.043 118.4 551.443 116.533 557.843 112.8C564.243 108.933 569.243 103.467 572.843 96.4C576.443 89.3333 578.243 81.1333 578.243 71.8C578.243 62.4667 576.443 54.3333 572.843 47.4C569.243 40.3333 564.243 34.9333 557.843 31.2C551.443 27.4667 544.043 25.6 535.643 25.6C527.243 25.6 519.776 27.4667 513.243 31.2C506.843 34.9333 501.843 40.3333 498.243 47.4C494.643 54.3333 492.843 62.4667 492.843 71.8C492.843 81.1333 494.643 89.3333 498.243 96.4C501.843 103.467 506.843 108.933 513.243 112.8C519.776 116.533 527.243 118.4 535.643 118.4Z" fill="#161616"/>
</svg>




