<svg width="517" height="144" viewBox="0 0 517 144" fill="none" xmlns="http://www.w3.org/2000/svg">
<path d="M115.924 2.4V142H87.9242V82.6H28.1242V142H0.12422V2.4H28.1242V59.8H87.9242V2.4H115.924ZM208.284 143.4C195.217 143.4 183.217 140.333 172.284 134.2C161.35 128.067 152.684 119.6 146.284 108.8C139.884 97.8667 136.684 85.5333 136.684 71.8C136.684 58.2 139.884 46 146.284 35.2C152.684 24.2667 161.35 15.7333 172.284 9.59999C183.217 3.46666 195.217 0.399999 208.284 0.399999C221.484 0.399999 233.484 3.46666 244.284 9.59999C255.217 15.7333 263.817 24.2667 270.084 35.2C276.484 46 279.684 58.2 279.684 71.8C279.684 85.5333 276.484 97.8667 270.084 108.8C263.817 119.6 255.217 128.067 244.284 134.2C233.35 140.333 221.35 143.4 208.284 143.4ZM208.284 118.4C216.684 118.4 224.084 116.533 230.484 112.8C236.884 108.933 241.884 103.467 245.484 96.4C249.084 89.3333 250.884 81.1333 250.884 71.8C250.884 62.4667 249.084 54.3333 245.484 47.4C241.884 40.3333 236.884 34.9333 230.484 31.2C224.084 27.4667 216.684 25.6 208.284 25.6C199.884 25.6 192.417 27.4667 185.884 31.2C179.484 34.9333 174.484 40.3333 170.884 47.4C167.284 54.3333 165.484 62.4667 165.484 71.8C165.484 81.1333 167.284 89.3333 170.884 96.4C174.484 103.467 179.484 108.933 185.884 112.8C192.417 116.533 199.884 118.4 208.284 118.4ZM328.515 119.8H374.515V142H300.515V2.4H328.515V119.8ZM477.912 115.4H422.312L413.112 142H383.712L433.912 2.19999H466.512L516.712 142H487.112L477.912 115.4ZM470.312 93L450.112 34.6L429.912 93H470.312Z" fill="white"/>
</svg>
