<svg preserveAspectRatio="xMidYMid meet" data-bbox="22.5 22.5 155 155" viewBox="22.5 22.5 155 155" xmlns="http://www.w3.org/2000/svg" data-type="shape" role="presentation" aria-hidden="true" aria-label=""><g><path d="M129.8 100l-25.1 25.1-3.1-3.1 19.7-19.7h-48v-4.4h48l-19.7-19.7 3.1-3.1 25.1 24.9zm47.7 0c0-42.8-34.7-77.5-77.5-77.5S22.5 57.2 22.5 100s34.7 77.5 77.5 77.5 77.5-34.7 77.5-77.5zm-4.4 0c0 40.4-32.7 73.1-73.1 73.1S26.9 140.4 26.9 100c0-40.4 32.7-73.1 73.1-73.1 40.3.1 73 32.8 73.1 73.1z"></path></g></svg>